<mxfile host="app.diagrams.net" modified="2023-06-04T16:00:00.820Z" agent="Mozilla/5.0 (Windows NT 10.0; Win64; x64) AppleWebKit/537.36 (KHTML, like Gecko) Chrome/113.0.0.0 Safari/537.36" etag="0FyL0ZVZunw0YfoRrsNp" version="21.3.2" type="device">
  <diagram name="Page-1" id="7JhA6JxdTgv8fCPutDl5">
    <mxGraphModel dx="1185" dy="661" grid="1" gridSize="10" guides="1" tooltips="1" connect="1" arrows="1" fold="1" page="1" pageScale="1" pageWidth="827" pageHeight="1169" math="0" shadow="0">
      <root>
        <mxCell id="0" />
        <mxCell id="1" parent="0" />
        <mxCell id="guMymW5x0ElN-pdInGeA-3" style="edgeStyle=orthogonalEdgeStyle;rounded=0;orthogonalLoop=1;jettySize=auto;html=1;entryX=0.5;entryY=0;entryDx=0;entryDy=0;entryPerimeter=0;startArrow=classic;startFill=1;" edge="1" parent="1" source="guMymW5x0ElN-pdInGeA-1" target="guMymW5x0ElN-pdInGeA-2">
          <mxGeometry relative="1" as="geometry" />
        </mxCell>
        <mxCell id="guMymW5x0ElN-pdInGeA-1" value="User Interface&lt;br&gt;Application Logic&lt;br&gt;Database Handling" style="rounded=0;whiteSpace=wrap;html=1;" vertex="1" parent="1">
          <mxGeometry x="120" y="400" width="120" height="60" as="geometry" />
        </mxCell>
        <mxCell id="guMymW5x0ElN-pdInGeA-2" value="Database" style="shape=cylinder3;whiteSpace=wrap;html=1;boundedLbl=1;backgroundOutline=1;size=15;" vertex="1" parent="1">
          <mxGeometry x="150" y="510" width="60" height="60" as="geometry" />
        </mxCell>
        <mxCell id="guMymW5x0ElN-pdInGeA-5" style="edgeStyle=orthogonalEdgeStyle;rounded=0;orthogonalLoop=1;jettySize=auto;html=1;entryX=0.5;entryY=0;entryDx=0;entryDy=0;startArrow=classic;startFill=1;" edge="1" parent="1" source="guMymW5x0ElN-pdInGeA-4" target="guMymW5x0ElN-pdInGeA-1">
          <mxGeometry relative="1" as="geometry" />
        </mxCell>
        <mxCell id="guMymW5x0ElN-pdInGeA-4" value="User" style="ellipse;whiteSpace=wrap;html=1;aspect=fixed;" vertex="1" parent="1">
          <mxGeometry x="155" y="300" width="50" height="50" as="geometry" />
        </mxCell>
        <mxCell id="guMymW5x0ElN-pdInGeA-6" value="&lt;font style=&quot;font-size: 20px;&quot;&gt;Monolith Structure&lt;/font&gt;" style="text;html=1;strokeColor=none;fillColor=none;align=center;verticalAlign=middle;whiteSpace=wrap;rounded=0;" vertex="1" parent="1">
          <mxGeometry x="90" y="250" width="180" height="30" as="geometry" />
        </mxCell>
        <mxCell id="guMymW5x0ElN-pdInGeA-7" value="" style="endArrow=none;html=1;rounded=0;" edge="1" parent="1">
          <mxGeometry width="50" height="50" relative="1" as="geometry">
            <mxPoint x="280" y="600" as="sourcePoint" />
            <mxPoint x="280" y="260" as="targetPoint" />
          </mxGeometry>
        </mxCell>
        <mxCell id="guMymW5x0ElN-pdInGeA-10" value="Service DB" style="shape=cylinder3;whiteSpace=wrap;html=1;boundedLbl=1;backgroundOutline=1;size=15;" vertex="1" parent="1">
          <mxGeometry x="500" y="310" width="60" height="60" as="geometry" />
        </mxCell>
        <mxCell id="guMymW5x0ElN-pdInGeA-15" style="edgeStyle=orthogonalEdgeStyle;rounded=0;orthogonalLoop=1;jettySize=auto;html=1;entryX=0.5;entryY=0;entryDx=0;entryDy=0;startArrow=classic;startFill=1;" edge="1" parent="1" source="guMymW5x0ElN-pdInGeA-12" target="guMymW5x0ElN-pdInGeA-14">
          <mxGeometry relative="1" as="geometry" />
        </mxCell>
        <mxCell id="guMymW5x0ElN-pdInGeA-12" value="User" style="ellipse;whiteSpace=wrap;html=1;aspect=fixed;" vertex="1" parent="1">
          <mxGeometry x="355" y="300" width="50" height="50" as="geometry" />
        </mxCell>
        <mxCell id="guMymW5x0ElN-pdInGeA-13" value="&lt;font style=&quot;font-size: 20px;&quot;&gt;Microservices Structure&lt;/font&gt;" style="text;html=1;strokeColor=none;fillColor=none;align=center;verticalAlign=middle;whiteSpace=wrap;rounded=0;" vertex="1" parent="1">
          <mxGeometry x="370" y="250" width="180" height="30" as="geometry" />
        </mxCell>
        <mxCell id="guMymW5x0ElN-pdInGeA-17" style="edgeStyle=orthogonalEdgeStyle;rounded=0;orthogonalLoop=1;jettySize=auto;html=1;entryX=0;entryY=0.5;entryDx=0;entryDy=0;startArrow=classic;startFill=1;" edge="1" parent="1" source="guMymW5x0ElN-pdInGeA-14" target="guMymW5x0ElN-pdInGeA-16">
          <mxGeometry relative="1" as="geometry" />
        </mxCell>
        <mxCell id="guMymW5x0ElN-pdInGeA-27" style="edgeStyle=orthogonalEdgeStyle;rounded=0;orthogonalLoop=1;jettySize=auto;html=1;entryX=0.5;entryY=0;entryDx=0;entryDy=0;startArrow=classic;startFill=1;" edge="1" parent="1" source="guMymW5x0ElN-pdInGeA-14" target="guMymW5x0ElN-pdInGeA-24">
          <mxGeometry relative="1" as="geometry" />
        </mxCell>
        <mxCell id="guMymW5x0ElN-pdInGeA-14" value="User Interface" style="rounded=0;whiteSpace=wrap;html=1;" vertex="1" parent="1">
          <mxGeometry x="331.25" y="390" width="97.5" height="30" as="geometry" />
        </mxCell>
        <mxCell id="guMymW5x0ElN-pdInGeA-19" style="edgeStyle=orthogonalEdgeStyle;rounded=0;orthogonalLoop=1;jettySize=auto;html=1;entryX=0.5;entryY=1;entryDx=0;entryDy=0;entryPerimeter=0;startArrow=classic;startFill=1;" edge="1" parent="1" source="guMymW5x0ElN-pdInGeA-16" target="guMymW5x0ElN-pdInGeA-10">
          <mxGeometry relative="1" as="geometry" />
        </mxCell>
        <mxCell id="guMymW5x0ElN-pdInGeA-21" style="edgeStyle=orthogonalEdgeStyle;rounded=0;orthogonalLoop=1;jettySize=auto;html=1;entryX=0.5;entryY=0;entryDx=0;entryDy=0;startArrow=classic;startFill=1;" edge="1" parent="1" source="guMymW5x0ElN-pdInGeA-16" target="guMymW5x0ElN-pdInGeA-20">
          <mxGeometry relative="1" as="geometry" />
        </mxCell>
        <mxCell id="guMymW5x0ElN-pdInGeA-16" value="Service Logic&lt;br&gt;Service DB handling" style="rounded=0;whiteSpace=wrap;html=1;" vertex="1" parent="1">
          <mxGeometry x="470" y="390" width="120" height="30" as="geometry" />
        </mxCell>
        <mxCell id="guMymW5x0ElN-pdInGeA-23" style="edgeStyle=orthogonalEdgeStyle;rounded=0;orthogonalLoop=1;jettySize=auto;html=1;entryX=0.5;entryY=0;entryDx=0;entryDy=0;entryPerimeter=0;startArrow=classic;startFill=1;" edge="1" parent="1" source="guMymW5x0ElN-pdInGeA-20" target="guMymW5x0ElN-pdInGeA-22">
          <mxGeometry relative="1" as="geometry" />
        </mxCell>
        <mxCell id="guMymW5x0ElN-pdInGeA-20" value="Service Logic&lt;br&gt;Service DB handling" style="rounded=0;whiteSpace=wrap;html=1;" vertex="1" parent="1">
          <mxGeometry x="470" y="460" width="120" height="30" as="geometry" />
        </mxCell>
        <mxCell id="guMymW5x0ElN-pdInGeA-22" value="Service DB" style="shape=cylinder3;whiteSpace=wrap;html=1;boundedLbl=1;backgroundOutline=1;size=15;" vertex="1" parent="1">
          <mxGeometry x="500" y="510" width="60" height="60" as="geometry" />
        </mxCell>
        <mxCell id="guMymW5x0ElN-pdInGeA-29" style="edgeStyle=orthogonalEdgeStyle;rounded=0;orthogonalLoop=1;jettySize=auto;html=1;entryX=0.5;entryY=0;entryDx=0;entryDy=0;entryPerimeter=0;startArrow=classic;startFill=1;" edge="1" parent="1" source="guMymW5x0ElN-pdInGeA-24" target="guMymW5x0ElN-pdInGeA-28">
          <mxGeometry relative="1" as="geometry" />
        </mxCell>
        <mxCell id="guMymW5x0ElN-pdInGeA-24" value="Service Logic&lt;br&gt;Service DB handling" style="rounded=0;whiteSpace=wrap;html=1;" vertex="1" parent="1">
          <mxGeometry x="320" y="460" width="120" height="30" as="geometry" />
        </mxCell>
        <mxCell id="guMymW5x0ElN-pdInGeA-28" value="Service DB" style="shape=cylinder3;whiteSpace=wrap;html=1;boundedLbl=1;backgroundOutline=1;size=15;" vertex="1" parent="1">
          <mxGeometry x="350" y="510" width="60" height="60" as="geometry" />
        </mxCell>
      </root>
    </mxGraphModel>
  </diagram>
</mxfile>
